Coordinates
version=1
nRows=5
nColumns=40
inDegrees=yes

Units are S.I. units (second, meters, Newtons, ...)
Angles are in degrees.

endheader
time	pelvis_tilt	pelvis_list	pelvis_rotation	pelvis_tx	pelvis_ty	pelvis_tz	hip_flexion_r	hip_adduction_r	hip_rotation_r	knee_angle_r	knee_angle_r_beta	ankle_angle_r	subtalar_angle_r	mtp_angle_r	hip_flexion_l	hip_adduction_l	hip_rotation_l	knee_angle_l	knee_angle_l_beta	ankle_angle_l	subtalar_angle_l	mtp_angle_l	lumbar_extension	lumbar_bending	lumbar_rotation	arm_flex_r	arm_add_r	arm_rot_r	elbow_flex_r	pro_sup_r	wrist_flex_r	wrist_dev_r	arm_flex_l	arm_add_l	arm_rot_l	elbow_flex_l	pro_sup_l	wrist_flex_l	wrist_dev_l
     43.80250000	     -4.15972657	     -5.37762237	      0.14766660	      1.06362834	      0.92273039	      0.47422456	     21.44595882	      2.34934851	    -10.35588475	     19.77501920	     19.77501920	      4.65587521	     -2.11538358	     -3.30135541	      4.41991907	    -11.85181389	     -6.29496826	     40.25854439	     40.25854439	      9.41267011	     -8.19590936	    -17.91003619	    -11.60934565	      7.38169252	      1.74888577	     -1.03791488	    -13.26845547	     -1.36610042	     36.51520117	     45.80999020	      0.00000000	      0.00000000	      6.63769659	    -13.65158326	      0.67968312	     82.99670818	     47.72191042	      0.00000000	      0.00000000
     43.81428571	     -4.11737184	     -5.44955647	      0.49661289	      1.06380839	      0.92382806	      0.47654625	     20.62999621	      2.54414946	    -10.64239018	     19.46191735	     19.46191735	      5.03994604	     -2.00277215	     -3.58353223	      6.49835688	    -12.29478052	     -4.90345853	     44.13309194	     44.13309194	      5.15636779	    -11.15743736	    -20.85425562	    -11.60949049	      7.41602015	      2.06928401	     -0.87999826	    -13.94207359	      0.06508539	     39.84503114	     45.59710303	      0.00000000	      0.00000000	      6.35201617	    -12.51725846	      0.38375757	     78.11174715	     47.65737854	      0.00000000	      0.00000000
     43.82607143	     -4.12029232	     -5.60635063	      0.86174418	      1.06365311	      0.92459904	      0.47889571	     19.89821443	      2.82555200	    -10.99881433	     19.17125200	     19.17125200	      5.42958413	     -1.84038297	     -3.71698495	      8.95952422	    -12.84957562	     -3.56085328	     48.47920345	     48.47920345	      2.24302632	    -12.55530790	    -20.15297215	    -11.60959639	      7.50038130	      2.04083840	     -0.05342526	    -14.42597104	      0.85865708	     42.44722946	     45.46442737	      0.00000000	      0.00000000	      5.62881488	    -11.87301763	      0.43042571	     74.41131198	     47.58534098	      0.00000000	      0.00000000
     43.83785714	     -4.07225988	     -5.80525985	      1.26651636	      1.06332111	      0.92518971	      0.48117011	     19.16704036	      3.13210656	    -11.42499914	     18.96633970	     18.96633970	      5.85562591	     -1.69472177	     -3.77459851	     11.51431764	    -13.36161820	     -2.12398247	     52.81071874	     52.81071874	      0.03781325	    -13.15328790	    -17.76963970	    -11.68702340	      7.63252809	      2.10573387	      0.72137707	    -14.93437867	      1.51557308	     45.37232586	     45.33584906	      0.00000000	      0.00000000	      5.01919756	    -11.29550573	      0.40657679	     70.35461645	     47.50900942	      0.00000000	      0.00000000
     43.84964286	     -4.08132122	     -5.97866632	      1.69570086	      1.06276394	      0.92554646	      0.48328809	     18.54103815	      3.39608180	    -11.87407677	     18.81292100	     18.81292100	      6.33215383	     -1.49733159	     -3.78842361	     14.22699650	    -13.68379546	     -0.57662500	     56.96497423	     56.96497423	     -1.47295571	    -13.33128730	    -13.94226618	    -11.67265163	      7.73240206	      2.15907585	      1.48860614	    -15.49937055	      1.95436238	     48.37493108	     45.22275735	      0.00000000	      0.00000000	      4.62683469	    -10.58411809	      0.21525232	     65.82380008	     47.43683946	      0.00000000	      0.00000000
